Coordinates
version=1
nRows=33
nColumns=33
inDegrees=yes

Units are S.I. units (second, meters, Newtons, ...)
Angles are in degrees.

endheader
time	ground_thorax_rot_x	ground_thorax_rot_y	ground_thorax_rot_z	ground_thorax_tx	ground_thorax_ty	ground_thorax_tz	clav_prot_r	clav_elev_r	scapula_abduction_r	scapula_elevation_r	scapula_upward_rot_r	scapula_winging_r	shoulder_elv_r	plane_of_elev_r	axial_rot_r	elbow_flexion_r	pro_sup_r	wrist_flex_r	wrist_dev_r	clav_prot_l	clav_elev_l	scapula_abduction_l	scapula_elevation_l	scapula_upward_rot_l	scapula_winging_l	shoulder_elv_l	plane_of_elev_l	axial_rot_l	elbow_flexion_l	pro_sup_l	wrist_flex_l	wrist_dev_l	
7.3800	-38.250089	-4.524001	2.470095	-7.077019	803.129343	2.093706	-5.762646	-45.000000	45.000000	-45.000000	26.766157	-2626.911994	-2461.063196	19.444281	-180.000000	3.475308	-75.305899	16.620859	9.918793	16.045845	40.235723	-44.999993	-39.154745	-25.398460	2956.508302	-5140.364984	135.608551	-180.000000	726.061406	-330.604808	9.851530	-18.672298	
7.3900	-38.204717	-4.675742	2.470047	-7.834650	802.279578	2.245475	-5.708631	-45.000000	44.999999	-45.000000	26.373982	-2626.907527	-2461.024247	19.472228	-180.000000	3.510253	-74.691061	16.627122	9.923268	15.972648	40.050458	-44.999987	-38.960687	-25.578440	2956.644701	-5140.368449	135.616094	-180.000000	725.970473	-330.590342	9.897940	-18.700403	
7.4000	-38.158457	-4.844262	2.487816	-8.705154	801.440113	2.403572	-5.724763	-45.000000	44.999999	-45.000000	25.983280	-2626.938531	-2460.980102	19.515815	-180.000000	3.563029	-74.081542	16.617709	9.891878	15.901153	39.772034	-44.999977	-38.778298	-25.786780	2956.821973	-5140.394997	135.597453	-180.000000	725.873655	-330.600642	9.965211	-18.766011	
7.4100	-38.140965	-4.955857	2.462478	-9.818894	800.627621	2.572349	-5.682616	-45.000000	44.999998	-45.000000	25.673874	-2626.991282	-2460.913806	19.528864	-180.000000	3.583425	-73.439717	16.624588	9.881558	15.880335	39.648652	-44.999959	-38.675017	-25.997660	2956.930248	-5140.414909	135.602350	-180.000000	725.784924	-330.647629	10.036192	-18.816148	
7.4200	-38.143063	-5.025890	2.405149	-11.194107	799.839207	2.749933	-5.615586	-45.000000	44.999996	-45.000000	25.402992	-2627.058620	-2460.824834	19.526448	-180.000000	3.581752	-72.804408	16.642707	9.892863	15.880758	39.604553	-44.999926	-38.638661	-26.227995	2956.984112	-5140.431277	135.636150	-180.000000	725.719859	-330.734105	10.113106	-18.862817	
7.4300	-38.165613	-5.071965	2.339867	-12.866290	799.074915	2.931963	-5.537199	-45.000000	44.999993	-45.000000	25.155618	-2627.152689	-2460.707172	19.509634	-180.000000	3.571906	-72.204780	16.656640	9.899231	15.916501	39.616185	-44.999868	-38.666949	-26.511284	2957.009946	-5140.447300	135.675168	-180.000000	725.675684	-330.855897	10.196723	-18.923488	
7.4400	-38.203075	-5.118636	2.293781	-14.841201	798.330745	3.109469	-5.425122	-45.000000	44.999988	-45.000000	24.880370	-2627.262930	-2460.551821	19.482261	-180.000000	3.555981	-71.678684	16.673263	9.918500	15.977149	39.677186	-44.999764	-38.757716	-26.908557	2956.997989	-5140.448457	135.722659	-180.000000	725.662623	-331.001274	10.269974	-18.981741	
7.4500	-38.248082	-5.201443	2.306768	-17.111449	797.602550	3.270659	-5.302463	-45.000000	44.999978	-45.000000	24.554901	-2627.414410	-2460.357348	19.460525	-180.000000	3.561230	-71.267988	16.670981	9.914977	16.078561	39.723760	-44.999577	-38.879680	-27.440866	2957.011915	-5140.444990	135.738192	-180.000000	725.663700	-331.148372	10.334941	-19.061492	
7.4600	-38.298826	-5.284963	2.328217	-19.670936	796.888653	3.402794	-5.155823	-45.000000	44.999960	-45.000000	24.204024	-2627.568879	-2460.129137	19.428395	-180.000000	3.567068	-70.995587	16.661766	9.921235	16.173807	39.787832	-44.999242	-39.028570	-28.045979	2957.020666	-5140.428932	135.754342	-180.000000	725.689278	-331.258777	10.389025	-19.144139	
7.4700	-38.350488	-5.394904	2.390705	-22.514423	796.189683	3.494605	-5.004148	-45.000000	44.999929	-45.000000	23.824404	-2627.759951	-2459.869502	19.399579	-180.000000	3.590474	-70.868683	16.638157	9.911195	16.288395	39.833394	-44.998642	-39.181740	-28.729429	2957.066632	-5140.414256	135.748442	-180.000000	725.725706	-331.299887	10.427331	-19.243762	
7.4800	-38.403809	-5.528017	2.491924	-25.637253	795.507860	3.536873	-4.823533	-45.000000	44.999872	-45.000000	23.385782	-2627.982439	-2459.588879	19.385106	-180.000000	3.629759	-70.872261	16.609620	9.912067	16.422669	39.860242	-44.997569	-39.343681	-29.489863	2957.126924	-5140.396697	135.734033	-180.000000	725.767366	-331.252641	10.442757	-19.339459	
7.4900	-38.455493	-5.703962	2.657074	-29.033827	794.846723	3.522681	-4.605806	-45.000000	44.999772	-45.000000	22.832911	-2628.249318	-2459.303048	19.406667	-180.000000	3.691617	-70.979903	16.567798	9.911923	16.623251	39.839344	-44.995642	-39.500115	-30.336260	2957.219496	-5140.382630	135.707757	-180.000000	725.809035	-331.122143	10.442063	-19.441187	
7.5000	-38.507524	-5.889296	2.840168	-32.696748	794.210588	3.446708	-4.343121	-45.000000	44.999591	-45.000000	22.155727	-2628.514843	-2459.030657	19.449957	-180.000000	3.750868	-71.147574	16.518047	9.924147	16.863539	39.792729	-44.992202	-39.660773	-31.220107	2957.310648	-5140.367619	135.700205	-180.000000	725.860809	-330.925047	10.440264	-19.542953	
7.5100	-38.559331	-6.107935	3.071811	-36.616030	793.604466	3.305186	-4.028773	-45.000000	44.999267	-45.000000	21.331645	-2628.787642	-2458.771542	19.511026	-180.000000	3.804951	-71.323502	16.469170	9.932588	17.161149	39.727851	-44.986010	-39.827097	-32.183918	2957.406522	-5140.354155	135.705926	-180.000000	725.924739	-330.697048	10.433690	-19.643787	
7.5200	-38.614301	-6.345994	3.335633	-40.778953	793.033885	3.095332	-3.673546	-45.000000	44.998687	-45.000000	20.402644	-2629.064587	-2458.523356	19.577263	-180.000000	3.852438	-71.455201	16.423903	9.934833	17.485101	39.659087	-44.975002	-40.008758	-33.217681	2957.503626	-5140.341583	135.714423	-180.000000	725.991397	-330.472482	10.426151	-19.736877	
7.5300	-38.672937	-6.597331	3.618851	-45.170322	792.505197	2.816246	-3.290208	-45.000000	44.997648	-45.000000	19.404733	-2629.340866	-2458.283444	19.632854	-180.000000	3.886963	-71.499893	16.392312	9.926866	17.808477	39.590683	-44.955049	-40.208102	-34.303375	2957.597779	-5140.334386	135.730038	-180.000000	726.060618	-330.283261	10.425236	-19.822215	
7.5400	-38.736221	-6.826365	3.878777	-49.773297	792.025642	2.469436	-2.914082	-45.000000	44.995789	-45.000000	18.428545	-2629.611218	-2458.046343	19.660196	-180.000000	3.907318	-71.425507	16.374053	9.910312	18.076814	39.543913	-44.919959	-40.427169	-35.380473	2957.680538	-5140.331631	135.754992	-180.000000	726.133687	-330.138741	10.434891	-19.900542	
7.5500	-38.805610	-7.064144	4.150471	-54.570706	791.603610	2.060052	-2.534811	-45.000000	44.992449	-45.000000	17.452139	-2629.890107	-2457.806308	19.661783	-180.000000	3.921987	-71.208146	16.382749	9.885598	18.293409	39.508371	-44.855285	-40.674126	-36.487536	2957.741723	-5140.331775	135.782915	-180.000000	726.200545	-330.052198	10.448749	-19.963557	
7.5600	-38.880732	-7.322662	4.447564	-59.545281	791.248529	1.596126	-2.148554	-45.000000	44.986495	-45.000000	16.458940	-2630.189970	-2457.567302	19.654953	-180.000000	3.943092	-70.839170	16.407784	9.859416	18.466068	39.470431	-44.744510	-40.954946	-37.636160	2957.770540	-5140.325411	135.801562	-180.000000	726.251277	-330.023594	10.465636	-20.009183	
7.5700	-38.959300	-7.648279	4.801368	-64.680041	790.970875	1.088472	-1.716170	-45.000000	44.975751	-45.000000	15.348835	-2630.479235	-2457.340409	19.637764	-180.000000	3.963549	-70.313843	16.452154	9.826483	18.589452	39.414275	-44.531916	-41.283555	-38.844141	2957.735310	-5140.294782	135.810645	-180.000000	726.284365	-330.063290	10.501686	-20.042895	
7.5800	-39.034999	-8.049405	5.217225	-69.957583	790.781758	0.548683	-1.243823	-45.000000	44.956726	-45.000000	14.115048	-2630.758234	-2457.126365	19.621351	-180.000000	3.986596	-69.646392	16.506430	9.790678	18.659375	39.349915	-44.190632	-41.653237	-40.081377	2957.633123	-5140.232170	135.812268	-180.000000	726.308143	-330.151776	10.550229	-20.069127	
7.5900	-39.107899	-8.534689	5.696774	-75.359820	790.692667	-0.011902	-0.724679	-45.000000	44.922032	-45.000000	12.726633	-2631.013259	-2456.935048	19.607177	-180.000000	4.007312	-68.854273	16.573390	9.749331	18.666461	39.279807	-43.703883	-42.064831	-41.319453	2957.460750	-5140.140371	135.814214	-180.000000	726.323437	-330.262401	10.614977	-20.093631	
7.6000	-39.177487	-9.041996	6.192229	-80.866632	790.714910	-0.584539	-0.238111	-45.000000	44.861596	-45.000000	11.325772	-2631.275111	-2456.747230	19.605322	-180.000000	4.046493	-67.981033	16.629321	9.720622	18.633035	39.219926	-43.122258	-42.491803	-42.464330	2957.258210	-5140.052766	135.826174	-180.000000	726.330820	-330.328549	10.665121	-20.115489	
7.6100	-39.245929	-9.563444	6.686971	-86.456427	790.859524	-1.162827	0.264554	-45.000000	44.748562	-45.000000	9.826535	-2631.483268	-2456.586955	19.606755	-180.000000	4.081830	-67.036621	16.702717	9.683102	18.526141	39.172627	-42.430341	-42.921883	-43.440447	2957.031228	-5139.975035	135.869321	-180.000000	726.334601	-330.327817	10.736428	-20.152376	
7.6200	-39.314704	-10.028350	7.128419	-92.105387	791.136954	-1.742799	0.717854	-45.000000	44.559420	-45.000000	8.316022	-2631.641063	-2456.449874	19.621701	-180.000000	4.125988	-66.060502	16.779015	9.649883	18.375128	39.146938	-41.700073	-43.322251	-44.166642	2956.828264	-5139.941682	135.954098	-180.000000	726.332736	-330.210070	10.812028	-20.208644	
7.6300	-39.385674	-10.464572	7.554471	-97.788760	791.556816	-2.321513	1.198355	-45.000000	44.183387	-45.000000	6.552199	-2631.637052	-2456.368978	19.647642	-180.000000	4.147781	-65.041537	16.897911	9.588605	18.155825	39.142759	-40.913449	-43.697668	-44.642781	2956.641533	-5139.944866	136.093249	-180.000000	726.326285	-329.985473	10.941228	-20.302279	
7.6400	-39.462472	-10.832528	7.947567	-103.480425	792.127301	-2.896767	1.625495	-45.000000	43.615605	-45.000000	4.657272	-2631.509129	-2456.315101	19.687892	-180.000000	4.166999	-64.053261	17.032344	9.523127	17.926064	39.160323	-40.138248	-44.039089	-44.889942	2956.491181	-5139.997329	136.281281	-180.000000	726.315177	-329.611046	11.082615	-20.426056	
7.6500	-39.540973	-11.193010	8.367651	-109.154420	792.854667	-3.466000	2.074018	-45.000000	42.781577	-45.000000	2.376030	-2631.151153	-2456.302900	19.736627	-180.000000	4.151468	-63.113964	17.220003	9.420866	17.642899	39.178296	-39.333847	-44.347224	-44.984725	2956.372069	-5140.057788	136.501418	-180.000000	726.305069	-329.107357	11.273145	-20.591223	
7.6600	-39.618218	-11.482877	8.749792	-114.784152	793.742611	-4.026288	2.400210	-45.000000	41.831763	-45.000000	0.084576	-2630.719015	-2456.276031	19.794436	-180.000000	4.136352	-62.336731	17.407442	9.326500	17.386459	39.185685	-38.594478	-44.599530	-45.000000	2956.313314	-5140.123685	136.725993	-180.000000	726.304193	-328.437643	11.437328	-20.778133	
7.6700	-39.690176	-11.734679	9.125285	-120.343586	794.791912	-4.574081	2.669499	-45.000000	40.747932	-45.000000	-2.330906	-2630.178379	-2456.236833	19.869038	-180.000000	4.108220	-61.722747	17.614894	9.219333	17.132895	39.168598	-37.914145	-44.794048	-45.000000	2956.322569	-5140.171672	136.938350	-180.000000	726.310742	-327.638423	11.598744	-20.991325	
7.6800	-39.759847	-11.870396	9.396468	-125.806631	796.000355	-5.105636	2.769668	-45.000000	39.757375	-45.000000	-4.364762	-2629.740374	-2456.135101	19.949378	-180.000000	4.109300	-61.347460	17.792878	9.144251	16.944145	39.133090	-37.363177	-44.920054	-45.000000	2956.403497	-5140.206774	137.128785	-180.000000	726.336400	-326.706819	11.693073	-21.210390	
7.6900	-39.825506	-11.929078	9.586528	-131.148424	797.363109	-5.616945	2.814735	-45.000000	38.847692	-45.000000	-6.180542	-2629.342953	-2455.999045	20.035329	-180.000000	4.119391	-61.153597	17.975759	9.070358	16.758308	39.072974	-36.894279	-44.983669	-45.000000	2956.549245	-5140.216516	137.292248	-180.000000	726.374427	-325.716944	11.771437	-21.444397	
7.7000	-39.893263	-11.863078	9.634515	-136.344672	798.872970	-6.104144	2.757589	-45.000000	38.155872	-45.000000	-7.472088	-2629.115853	-2455.817606	20.117687	-180.000000	4.166459	-61.148766	18.138882	9.021950	16.596112	39.017606	-36.531798	-45.000000	-45.000000	2956.740902	-5140.206114	137.417515	-180.000000	726.429120	-324.700451	11.812489	-21.684628	
